<svg width="235" height="113" viewBox="0 0 235 113" fill="none" xmlns="http://www.w3.org/2000/svg">
<rect y="23.4528" width="14.9245" height="89.5472" fill="black"/>
<rect x="25.5849" y="23.4528" width="14.9245" height="89.5472" fill="black"/>
<rect x="74.6226" y="23.4528" width="14.9245" height="89.5472" fill="black"/>
<rect x="98.0755" y="23.4528" width="14.9245" height="89.5472" fill="black"/>
<path d="M66.0947 113H49.0381V16.4365H0V0H113V16.4365H66.0947V113Z" fill="black"/>
<rect x="144.981" y="113" width="14.9245" height="89.5472" transform="rotate(-90 144.981 113)" fill="black"/>
<rect x="144.981" y="87.4151" width="14.9245" height="89.5472" transform="rotate(-90 144.981 87.4151)" fill="black"/>
<rect x="144.981" y="38.3774" width="14.9245" height="89.5472" transform="rotate(-90 144.981 38.3774)" fill="black"/>
<rect x="144.981" y="14.9245" width="14.9245" height="89.5472" transform="rotate(-90 144.981 14.9245)" fill="black"/>
<path d="M234.528 46.9053L234.528 63.9619L137.965 63.9619L137.965 113L121.528 113L121.528 0L137.965 1.96004e-07L137.965 46.9053L234.528 46.9053Z" fill="black"/>
</svg>
